<svg xmlns="http://www.w3.org/2000/svg" viewBox="0 0 517.59 669.28"><defs><style>.cls-1{fill:#fff}</style></defs><g id="Layer_2" data-name="Layer 2"><g id="Layer_1-2" data-name="Layer 1"><path class="cls-1" d="M332.48 161.28c4 7 2 33 2 33l8 27 25-60 11-12c23-26 17-54 17-54 6 0 3 27 3 27 9-14-1-40-1-40 2-4-1-15-1-15 6 5 6 29 6 29 2-4 1-19 1-19-8-50-44-38-44-38-4-20-9-10-9-10-12-18-13-3-13-3-4-3-9 6-9 6 0-9-10-9-10-9-10-16-35-22-35-22-28-6-29 11-29 11-8-4-11 1-11 1-2-4-12-3-12-3-31 4-29 24-29 24-9 5-17 15-17 15-21 28 3 32 3 32s2 3 11-8c0 0 14-12 32-12 0 0 22 0 32-7 0 0-32 25-9 42 0 0 14 11 21 18 0 0 12 18 7 48 0 0 11-34 32-31l13 2 6.16 8 1.67 8-.67 6.84z"/><path class="cls-1" d="M301.15 191.57a8.08 8.08 0 0 1-5.49-1.66c-1.8-1.62-2.18-4.28-1.15-7.9 0-.14 1.09-4.26 3.26-6.43a1 1 0 0 1 1.41 0 1 1 0 0 1 0 1.41c-1.77 1.78-2.72 5.5-2.73 5.54-.82 2.85-.63 4.83.55 5.89 2.87 2.6 11.16.11 14.11-1.07 13.38-5.73 18.37-20.24 18.42-20.38a.71.71 0 0 1 .08-.18c4.49-8 4.79-14.89 4.26-19.28a22.69 22.69 0 0 0-2.23-7.68c-3.37-4.47-7.19-6.88-11.37-7.18-7.1-.51-13 5.28-13.09 5.34a1 1 0 0 1-1.41-1.41c.26-.27 6.6-6.5 14.63-5.93 4.8.34 9.13 3 12.88 8l.06.1c.3.51 7.16 12.64-1.95 28.91-.49 1.41-5.69 15.59-19.52 21.51a33.11 33.11 0 0 1-10.72 2.4z"/><path class="cls-1" d="M301.48 175.28a.86.86 0 0 1-.32-.05 3.77 3.77 0 0 1-2.85-2.77c-.64-3.18 3.67-7.18 4.44-7.87.43-.76.73-4.87.73-8.31a1 1 0 0 1 1-1 1 1 0 0 1 1 1c0 3.84-.23 8.64-1.3 9.71-1.45 1.28-4.25 4.38-3.91 6.08 0 .17.14.67 1.07 1.09 1.74-1.17 7.4-4.66 10.53-2.81.79.19 4.94 1.05 7.17-.85 1.18-1 1.67-2.7 1.45-5-.25-.94-3.23-11.45-10.26-13.21a1 1 0 0 1 .49-1.94c8.48 2.12 11.6 14.22 11.73 14.73a.78.78 0 0 1 0 .14c.31 3.08-.41 5.39-2.14 6.85-3.27 2.77-8.88 1.28-9.12 1.22a1.11 1.11 0 0 1-.29-.14c-1.83-1.22-6.76 1.49-8.86 3a1 1 0 0 1-.56.13zM330.48 158.28a.62.62 0 0 1-.19 0 1 1 0 0 1-.8-1.16c2.81-15-5.25-17.84-5.33-17.87a.76.76 0 0 1-.28-.15 6 6 0 0 0-5.17-1.33c-4.31 1-7.31 6.92-7.34 7a1 1 0 0 1-1.34.45 1 1 0 0 1-.45-1.34c.14-.28 3.46-6.81 8.67-8a8 8 0 0 1 6.71 1.59c1.32.53 9.44 4.41 6.5 20.08a1 1 0 0 1-.98.73z"/><path class="cls-1" d="M324.48 167.28a1 1 0 0 1-.81-1.59c7.44-10.22-1.58-21.3-2-21.77a1 1 0 1 1 1.53-1.28c.11.13 10.41 12.73 2 24.23a1 1 0 0 1-.72.41zM200.53 257.5a30.13 30.13 0 0 1-4.2-.23c-7.94-1.65-13.63-5.15-17-10.42-4.92-7.76-2.93-16.43-2.85-16.8.74-3-2.47-11.09-3.86-14.19a7 7 0 0 1-1.33-8.62c-3.14-5.85-2.35-10.32-1.93-11.81-2.49-4.21-.58-14.16 0-16.83l-.61-.61c-8.61-8.61-.09-17.33 0-17.41a.69.69 0 0 1 .13-.11 24.32 24.32 0 0 0 8.45-11.9l-2.72-2.72-1.32 2a1 1 0 0 1-1.8-.8l.84-3.38c-2.57-2.47-2.84-8.5-2.87-10.07-1.82-2.84-2.35-5.52-1.58-8 1.09-3.52 4.49-5.44 5.74-6l1.81-6.33c-.87-5.33 4-12.23 4.21-12.53a1.07 1.07 0 0 1 .18-.19c5.63-4.69 7.63-19.21 7.65-19.36a1 1 0 0 1 2 .26c-.09.63-2.1 15.28-8.25 20.55-.58.84-4.61 6.91-3.76 11.13a1.07 1.07 0 0 1 0 .47l-2 7a1 1 0 0 1-.59.65s-4 1.66-5 5c-.59 1.94-.09 4.13 1.51 6.53a1 1 0 0 1 .17.55c0 2.89.69 7.93 2.55 9.17a1 1 0 0 1 .45.83 1 1 0 0 1 .7.3l4 4a1 1 0 0 1 .27.94 25.94 25.94 0 0 1-9.39 13.43c-.7.74-6.88 7.6.05 14.54l1 1a1 1 0 0 1 .27.93c-.8 3.49-2.4 13.2-.17 16.17a1 1 0 0 1 .12 1c-.07.19-1.74 4.69 1.94 11.14a1 1 0 0 1-.06 1.09 5.06 5.06 0 0 0 .9 6.7.86.86 0 0 1 .21.29c.52 1.16 5.11 11.44 4.06 15.65 0 .08-1.87 8.25 2.6 15.27 3 4.79 8.31 8 15.63 9.51.21 0 27 3.56 64.2-23.82a1 1 0 0 1 1.4.21 1 1 0 0 1-.21 1.4C232.4 255 209.58 257.5 200.53 257.5z"/><path class="cls-1" d="M252.48 304.28a1 1 0 0 1-.53-.15l-16-10-.11-.08c-9.54-7.95-12.66-16.75-13.6-22.74a30.77 30.77 0 0 1 .08-10.46l-10-4.66a1 1 0 1 1 .85-1.81l10.75 5a1 1 0 0 1 .54 1.17 27.54 27.54 0 0 0-.21 10.55c.9 5.61 3.85 13.86 12.83 21.37l15.51 9.69c3.24-1.36 14.29-5.65 17.53-2.66l2.42 1.61c5.88-3.34 58.17-33.37 62-48l1-9.93v-.16l6-22a1 1 0 0 1 1.93.53l-6 21.92-1 9.91a.59.59 0 0 1 0 .14c-4.06 16.24-61.06 48.28-63.49 49.64a1 1 0 0 1-1-.05l-3-2-.15-.12c-1.74-1.74-10.34.83-15.9 3.21a.91.91 0 0 1-.45.08z"/><path class="cls-1" d="M277.48 311.28a1 1 0 0 1-.9-.55c-.83-1.67-14.09-3.84-34.07-4.45-11 1-30.41-2.85-31.23-3a1 1 0 0 1-.68-.5c-6.47-12 1-24.12 2.75-26.62-1.46-4.78 3.6-16.84 4.21-18.25a1 1 0 0 1 1.31-.53 1 1 0 0 1 .53 1.32c-2.25 5.25-5.33 14.54-4 17.16a1 1 0 0 1-.1 1.05c-.1.12-9.3 12.37-3.13 24.5 3.06.59 20.43 3.79 30.25 2.9h.12c7.42.23 30.8 1.22 35.26 4.85l5.64-1.88-11.27-4a1 1 0 1 1 .67-1.88l14 5a1 1 0 0 1 .67 1 1 1 0 0 1-.69.94l-9 3a.84.84 0 0 1-.34-.06z"/><path class="cls-1" d="M308.48 308.28h-22a1 1 0 0 1 0-2h21.78c2.8-1.28 35.14-16.39 39.17-32.91l-4.88-11.7a1.14 1.14 0 0 1-.07-.32c0-.13-1-13.55-6.56-17.24a1 1 0 1 1 1.11-1.66c6 4 7.29 16.9 7.43 18.6l4.94 11.85a1 1 0 0 1 .05.6c-1.71 7.73-9.09 15.93-21.92 24.37a148 148 0 0 1-18.65 10.33 1.1 1.1 0 0 1-.4.08zM94.56 484c-17.13 0-31.12-7.18-40.93-14.5a103.32 103.32 0 0 1-24-25.66 1 1 0 0 1-.05-.94l23-50c29.77-71.51 57.27-86.9 58.42-87.5 8.91-5.94 26.37-12.76 27.11-13 13-6.09 21-1.93 23.33-.35 3.64-2.71 11.94-3.61 12.94-3.71a1 1 0 0 1 .49.07c6.21 2.67 18.81-2.42 20.11-2.95 12-9 19.06-10.08 19.35-10.12a1 1 0 1 1 .29 2c-.07 0-7 1.12-18.54 9.81a1.13 1.13 0 0 1-.21.12c-.58.25-14.17 6-21.54 3.1-2.87.32-10 1.5-12.15 3.69a1 1 0 0 1-1.36.05c-.31-.27-7.76-6.46-21.92.15-.24.09-18.06 7.05-26.87 12.92-.15.09-7.13 3.94-17.67 16.47-9.73 11.58-24.56 33.13-40 70.09l-22.75 49.47a102 102 0 0 0 23.26 24.68c19.93 14.85 41.21 18 63.24 9.46a1 1 0 1 1 .73 1.86A66.59 66.59 0 0 1 94.56 484z"/><path class="cls-1" d="M408.48 663.28a.92.92 0 0 1-.4-.08 1 1 0 0 1-.52-1.31c5.64-13.18-7.63-25.75-7.76-25.88a1 1 0 0 1-.32-.66l-1-16a.67.67 0 0 1 0-.2c1.79-13.43-3-21.09-3.73-22.14a8.71 8.71 0 0 1-3.18-11.17c7.77-15.53 6.91-27.36 6.9-27.48a.82.82 0 0 1 0-.27c1-4.92 8.91-62.36 9-62.94a1 1 0 0 1 1.94-.15c2.69 8.94 17.83 12 19.13 12.28 19.74-.29 47.25-3.06 66.45-14.61 9.74-5.85 13.42-11.68 14.31-13.33-5.91-9.4-11.57-32.81-11.82-33.82l-13-46v-.15c-2.94-25.52-16.74-51.39-16.88-51.64a1 1 0 0 1-.12-.41 25.71 25.71 0 0 0-13.42-21.16 1 1 0 0 1-.51-.54c-1.47-3.67-9.34-5.85-12.25-6.38a1 1 0 0 1-.69-.49l-3.95-6.9c-11.61-12.45-38.91-12.6-39.18-12.6-4.23 0-9.3-3-9.52-3.14-2.33-1.56-15.86-7.13-22.77-9.9-5.26-1.15-16.89-11.77-17.39-12.22a1 1 0 1 1 1.35-1.47c3.28 3 12.65 11 16.52 11.75l.18.05c.82.33 20.13 8.07 23.18 10.1 0 0 4.78 2.83 8.45 2.83a91.77 91.77 0 0 1 15.68 1.65c11.5 2.19 19.93 6.12 25 11.67a.8.8 0 0 1 .13.19l3.78 6.6c2.14.45 10.87 2.52 13.12 7.16A27.29 27.29 0 0 1 469.46 347c1.29 2.46 14.13 27.4 17 52.09l13 45.92c.07.29 6 25 11.87 33.72a1 1 0 0 1 .09.95c-.5 1.16-13.06 28.6-82.91 29.6h-.19c-.64-.12-14.13-2.59-19.29-10.52-1.72 12.39-7.57 54.57-8.53 59.59.1 1.48.55 13.07-7.11 28.39a6.78 6.78 0 0 0 2.66 8.72.92.92 0 0 1 .25.23c.25.34 6.19 8.47 4.2 23.64l1 15.51a37.48 37.48 0 0 1 6.15 8.22c3.75 6.82 4.37 13.61 1.8 19.63a1 1 0 0 1-.97.59zM101.48 658.28a1 1 0 0 1-1-.72c-5.9-20.66 10.52-48.19 12-50.66 4.74-20.11 5.86-63.47 5.93-66.48-12.37-40.07-4-56.59-2.94-58.5 2.76-14.23-3.62-35.11-4-36.28-8-18-7.1-51.95-7.06-53.39a1 1 0 0 1 0-.24c3.81-13.3 3-39.86 3-41.6-5-23 2-44.23 2-44.44a1 1 0 1 1 1.89.63c-.06.21-6.85 21-2 43.47a1.13 1.13 0 0 1 0 .18c0 1.14 1 28.16-3 42.18 0 2.29-.66 35.39 6.92 52.45a1 1 0 0 1 0 .1c.29.91 7 22.42 4 37.5a1 1 0 0 1-.14.33s-2.42 4-3.24 13c-.76 8.33-.27 22.74 6.35 44.15a1.12 1.12 0 0 1 0 .31c0 .46-1.06 46.35-6 67.21a1.34 1.34 0 0 1-.12.3c-.18.29-17.7 28.87-11.89 49.2a1 1 0 0 1-.69 1.23.84.84 0 0 1-.01.07z"/><path class="cls-1" d="M439.48 663.28h-.25a1 1 0 0 1-.72-1.21 159.53 159.53 0 0 0 3-59.58l-27-98.91a1 1 0 1 1 1.93-.53l27 99a161.42 161.42 0 0 1-3 60.5 1 1 0 0 1-.96.73zM513.48 666.28a1 1 0 0 1-.56-.17 1 1 0 0 1-.28-1.38c3.14-4.71 3.11-30.77 2.84-40.42 1-23.66-7.89-63.41-8-63.81v-.1l-8-70.34a1 1 0 0 1 .88-1.1 1 1 0 0 1 1.11.88l8 70.28c.38 1.68 9 40.75 8 64.2 0 1.38 1 35.32-3.17 41.52a1 1 0 0 1-.82.44zM3.48 664.28a1 1 0 0 1-1-.93l-2-30c-3-38.72 8.91-82.89 9-83.33l32.36-92.73a1 1 0 1 1 1.88.65l-32.3 92.67c-.1.37-11.9 44.22-8.95 82.6l2 30a1 1 0 0 1-.93 1.06zM73.48 661.28a1 1 0 0 1-.5-.13 1 1 0 0 1-.37-1.36c3.15-5.52.25-49.1-1.13-65.42v-.15c1-14.85 14.19-39.68 15.09-41.36 7-17.87 24.86-49.5 25-49.82a1 1 0 0 1 1.36-.38 1 1 0 0 1 .38 1.37c-.18.31-18 31.89-24.94 49.61v.12c-.14.25-13.87 25.89-14.88 40.51.54 6.43 4.89 59.47.86 66.51a1 1 0 0 1-.87.5zM408.48 496.28a1 1 0 0 1-1-1c0-9.11 12.55-37.21 13.08-38.41a1 1 0 0 1 .25-.33c8.58-7.63 9.66-45.9 9.67-46.28a.53.53 0 0 1 0-.13l10-63c3.08-22.59 13.54-22.85 14-22.85a1 1 0 0 1 0 2c-3.17.07-9.76 4.58-12 21.14l-10 62.95c-.06 2.37-1.2 39.11-10.17 47.51-1.11 2.51-12.82 29.09-12.82 37.4a1 1 0 0 1-1.01 1zM129.48 528.28a1 1 0 0 1-1-.92c-4.14-52.26-1.19-90.89 2-114.09 3.33-24.19 7.64-37.15 8-38.24 5.7-30 15-51.91 21.7-65 7.35-14.19 13.26-21.15 13.51-21.44a1 1 0 0 1 1.52 1.3c-.24.28-24 28.51-34.78 85.54a.83.83 0 0 1 0 .15c0 .12-4.52 13-8 38-3.17 23.09-6.1 61.54-2 113.57a1 1 0 0 1-.91 1.08z"/><path class="cls-1" d="M141.48 526.28a1 1 0 0 1-1-.9c-5.95-63.46 11.85-126.74 12-127.37 9.9-44.54 41.74-111.49 42.06-112.16a1 1 0 0 1 1.81.86c-.32.67-32.07 67.42-41.93 111.79-.19.69-17.89 63.62-12 126.69a1 1 0 0 1-.9 1.09z"/><path class="cls-1" d="M127.48 539.28a1 1 0 0 1-1-1c0-1.21.16-11.76 5.81-12 1.4-.52 8.57-3 11.74-.84a.92.92 0 0 1 .29.3c.13.2 3.05 4.94 1.79 8.45a4.94 4.94 0 0 1-3.32 3 .94.94 0 0 1-.55 0c-.08 0-7.72-1.84-14.27 1.9a1 1 0 0 1-.49.19zm13-12.68a25.08 25.08 0 0 0-7.69 1.62 1 1 0 0 1-.35.06c-2.72 0-3.68 5.12-3.93 8.33a23.7 23.7 0 0 1 13.86-1.37 2.9 2.9 0 0 0 1.82-1.71c.73-2-.72-5.22-1.48-6.52a4.94 4.94 0 0 0-2.19-.41z"/><path class="cls-1" d="M133.48 668.28h-.25a1 1 0 0 1-.72-1.21c.68-3.22-2.63-79.34-5-129.71a1 1 0 0 1 2-.1c.61 12.92 6 126.27 5 130.29a1 1 0 0 1-1.03.73zM146.48 669.28a1 1 0 0 1-1-1l-4-132a1 1 0 0 1 1-1 1 1 0 0 1 1 1l4 132a1 1 0 0 1-1 1zM362.48 518.28a1 1 0 0 1-1-.9c-5-51.47.94-218.45 1-220.13a.94.94 0 0 1 .16-.52c5.32-8 2.25-10.63 2.22-10.66a1 1 0 0 1-.16-1.4 1 1 0 0 1 1.38-.19c.19.15 4.61 3.62-1.61 13.12-.28 7.81-5.84 169.24-1 219.59a1 1 0 0 1-.9 1.09zM377.48 519.28h-.08a1 1 0 0 1-.92-1.08l6-74 3.33-149.94a1 1 0 0 1 1-1 1 1 0 0 1 1 1l-3.33 150-6 74.06a1 1 0 0 1-1 .96z"/><path class="cls-1" d="M378.48 528.28a1 1 0 0 1-.71-.29c-3-3-14.07-1.53-18.1-.73a1 1 0 0 1-1.13-.63c-1.55-4.14-1.81-6.87-.79-8.36a2.31 2.31 0 0 1 1.49-1c5.2-2 14.92-1 15.34-1a5.93 5.93 0 0 1 4.5 2.71c2.06 3.34.42 8.39.34 8.6a1 1 0 0 1-.71.66zm-8.48-4.09c3 0 5.91.35 7.91 1.43.3-1.5.54-3.92-.49-5.57a4 4 0 0 0-3-1.78c-.05 0-9.77-.94-14.48.94a.92.92 0 0 1-.36.07s-.05 0-.14.21c-.17.33-.61 1.67.78 5.65a59.88 59.88 0 0 1 9.78-.95z"/><path class="cls-1" d="M347.48 665.28h-.1a1 1 0 0 1-.9-1.09l13-138a1 1 0 0 1 1.09-.9 1 1 0 0 1 .9 1.09l-13 138a1 1 0 0 1-.99.9zM365.48 665.28h-.1a1 1 0 0 1-.9-1.09l13-137a1 1 0 0 1 1.09-.9 1 1 0 0 1 .9 1.09l-13 137a1 1 0 0 1-.99.9zM257.48 341.28a1 1 0 0 1-.79-.37c-3.51-4.4-7.34-6.7-11.38-6.85h-.41c-6.06 0-10.64 4.86-10.69 4.91a1 1 0 0 1-1.73-.68v-4.92c-2-12.6-13.69-28.32-13.8-28.48a1 1 0 0 1 .2-1.4 1 1 0 0 1 1.4.2c.49.66 12.17 16.35 14.18 29.45a.77.77 0 0 1 0 .15V336a17 17 0 0 1 10.89-4c4.45.16 8.61 2.51 12.38 7 4-2 23.72-12 31.3-20.61a54 54 0 0 0-12.93-7.21 1 1 0 0 1-.58-1.29 1 1 0 0 1 1.29-.58 54.93 54.93 0 0 1 14.29 8.16 1 1 0 0 1 .14 1.4c-8.05 10.06-32.32 21.78-33.35 22.27a1 1 0 0 1-.41.14z"/><path class="cls-1" d="M290.48 319.28a1 1 0 0 1-.43-1.9c.25-.12 25.42-12 31.48-17.82a1 1 0 0 1 1.42 0 1 1 0 0 1 0 1.41c-6.3 6.05-31 17.69-32 18.19a1.06 1.06 0 0 1-.47.12zM199.48 668.28a1 1 0 0 1-1-1l3-65 10-157c3.9-63.36 18-84.86 19.13-86.45 3.77-7.62 1.9-20.21 1.88-20.34a1 1 0 1 1 2-.3c.09.54 2 13.41-2.09 21.6a.57.57 0 0 1-.08.13c-.15.21-14.89 21.65-18.82 85.48l-10 157-3 65a1 1 0 0 1-1.02.88zm32-309zM242.48 668.28a1 1 0 0 1-1-1l3-129 5-117 4-84a1 1 0 0 1 1-1 1 1 0 0 1 1 1.05l-4 84-5 117-3 129a1 1 0 0 1-1 .95zM58.48 434.28h-.09a1 1 0 0 1-.91-1.08c.16-2 4.14-48.43 14.16-63.47a1 1 0 1 1 1.67 1.11c-9.74 14.61-13.8 62.05-13.84 62.53a1 1 0 0 1-.99.91zM176.48 395.28a1 1 0 0 1-.71-.29c-7.16-7.15-11.12-34.89-11.28-36.07a1 1 0 0 1 2-.28c0 .29 4 28.25 10.71 34.94a1 1 0 0 1-.7 1.7zM201.48 421.28a1 1 0 0 1-1-.94c-1-17.5-20.62-45.2-20.82-45.48a1 1 0 0 1 1.63-1.16c.82 1.15 20.18 28.44 21.18 46.53a1 1 0 0 1-.94 1zM112.48 393.28a1.26 1.26 0 0 1-.33 0 1 1 0 0 1-.62-1.28c.29-.83 7.23-20.39 18.36-28.48a1 1 0 0 1 1.17 1.62c-10.62 7.73-17.57 27.33-17.64 27.52a1 1 0 0 1-.94.62zM159.48 315.28h-.09a1 1 0 0 1-.91-1.09c.94-10.34-8.53-18.05-8.63-18.13a1 1 0 0 1-.15-1.4 1 1 0 0 1 1.4-.16c.43.34 10.41 8.47 9.37 19.87a1 1 0 0 1-.99.91zM272.48 407.28a.94.94 0 0 1-.51-.14 1 1 0 0 1-.35-1.37c.38-.64 38.7-64.49 82.55-78.44a1 1 0 1 1 .61 1.91c-43.13 13.72-81.07 76.92-81.44 77.55a1 1 0 0 1-.86.49zM316.48 532.28a1 1 0 0 1-.83-1.57c1-1.48 25.31-36.3 37.44-41.35a1 1 0 0 1 .77 1.85c-11.59 4.83-36.31 40.29-36.56 40.64a1 1 0 0 1-.82.43zM413.48 461.28a1 1 0 0 1-.54-.16c-13.12-8.43-21.41-.47-21.76-.13a1 1 0 0 1-1.41-1.41c.09-.1 9.74-9.47 24.25-.14a1 1 0 0 1-.54 1.84zM422 417.37a2.71 2.71 0 0 1-1.33-.36c-2.39-1.31-3.8-6.26-4.09-7.33-5-8.22-10.31-12.38-15.76-12.38-8.55 0-14.84 10.39-14.91 10.5a1 1 0 0 1-1.71-1c.28-.47 6.92-11.43 16.61-11.47 6.22 0 12.13 4.53 17.55 13.46a1.39 1.39 0 0 1 .12.28c.5 2 1.8 5.49 3.14 6.22a.65.65 0 0 0 .57.07 1 1 0 0 1 .63 1.9 2.63 2.63 0 0 1-.82.11zM336.48 455.28a1 1 0 0 1-1-.9c-1.05-10.5 22.95-25.32 24-25.95a1 1 0 0 1 1.05 1.71c-6.67 4.08-23.8 16.36-23 24a1 1 0 0 1-.89 1.1zM164.48 661.28a1 1 0 0 1-1-.76c-4.92-19.65-18.29-46-18.42-46.28a1 1 0 0 1 .43-1.35 1 1 0 0 1 1.35.44c.13.27 13.61 26.83 18.58 46.71a1 1 0 0 1-.73 1.21zM119.48 659.28a.92.92 0 0 1-.29 0 1 1 0 0 1-.67-1.24c5.83-19.45-5.86-50-6-50.36a1 1 0 0 1 1.87-.72c.49 1.28 12 31.55 6 51.65a1 1 0 0 1-.91.67zM484.48 445.28a.75.75 0 0 1-.21 0 1 1 0 0 1-.77-1.18c5.83-28.18-27.43-65.75-27.77-66.13a1 1 0 0 1 1.49-1.33 159.85 159.85 0 0 1 16.37 22.78C484 417 488 432.21 485.46 444.48a1 1 0 0 1-.98.8zM178.48 149.28a1 1 0 0 1-.78-.37 1 1 0 0 1 .15-1.41c9.09-7.27 5-13.38 4.81-13.64-4.89-7.6-4.33-14.05-3-18.14a19 19 0 0 1 4.12-7.14 1 1 0 0 1 1.41 0 1 1 0 0 1 0 1.41c-.39.4-9.29 9.64-.86 22.75 0 0 5.4 7.83-5.22 16.32a1 1 0 0 1-.63.22z"/><path class="cls-1" d="M170.48 133.28s4.33-6 11.16-2.5l-1.83-5.78s-6.33-3.33-9.33-2c0 0-4 2.28 0 10.28zM188.48 117.28s-3 8 6 9c0 0 4-10 29-9 0 0-20-12-35 0zM177.19 215.4a20.66 20.66 0 0 1-5.13-.65 1 1 0 0 1-.72-1.21 1 1 0 0 1 1.22-.73 19.8 19.8 0 0 0 16.28-3.3 1 1 0 0 1 .64-.23 19.7 19.7 0 0 0 8.94-2.27 19.63 19.63 0 0 1-10.63-6c-9.89-7.15-13.51-3.14-13.54-3.1a1.06 1.06 0 0 1-.53.33c-1.75.44-3 .26-3.75-.54a2.89 2.89 0 0 1-.44-2.74 1 1 0 0 1 .31-.46s5.13-4.32 7.3-9.52c-2-.59-5.95-2.24-7.59-6.34a1 1 0 0 1 .2-1.05 1 1 0 0 1 1-.27c.26.09 6.35 2.15 8.52 5.4a1 1 0 0 1 0 1.05 1 1 0 0 1 .08.82c-1.84 5.54-6.83 10.16-8 11.23a.76.76 0 0 0 .06.52c.1.11.55.23 1.52 0 1.14-1.06 5.89-4.33 16.1 3.1a1 1 0 0 1 .18.17c0 .06 4.82 5.64 12.24 5.64a1 1 0 0 1 .62 1.78 21.8 21.8 0 0 1-12.28 4.22 22 22 0 0 1-12.6 4.15zm-4.05-34.92a10.43 10.43 0 0 0 3.44 2.18 17 17 0 0 0-3.44-2.18z"/><path class="cls-1" d="M172.47 208.27a1 1 0 0 1-.89-1.43c.24-.48 2.64-4.63 13.09-2.54.09 0 11.85 1.95 16.61 1a1 1 0 1 1 .39 2c-5.12 1-16.86-.91-17.36-1-9-1.8-10.93 1.45-10.95 1.48a1 1 0 0 1-.89.49zM181.48 182.28a.92.92 0 0 1-.6-.2c-1.5-1.12-4.89-4-4.17-6.11.56-1.69 3-1.69 3.77-1.69 2.36 0 7.06 1.22 8 5.81a1 1 0 0 1-1.43 1.09c-1.24-.62-3.44-1.3-4.22-.82-.09 0-.33.21-.33.92a1 1 0 0 1-.56.9 1 1 0 0 1-.46.1zm-1-6c-1.58 0-1.88.33-1.89.34-.07.43 1 1.7 2.32 2.9a2.56 2.56 0 0 1 .84-.86 5.1 5.1 0 0 1 3.85-.16c-1.73-2.19-5.08-2.22-5.12-2.22z"/><path class="cls-1" d="M192.9 183.48a10.4 10.4 0 0 1-6.08-2.44 1 1 0 1 1 1.31-1.51s3 2.55 5.87 1.81c1.89-.49 3.41-2.31 4.54-5.4a16.72 16.72 0 0 0-2.88-13.08 1 1 0 0 1 1.63-1.16 18.33 18.33 0 0 1 3.15 14.86q-2.08 5.73-5.95 6.72a6.36 6.36 0 0 1-1.59.2zM172.48 142.28a1 1 0 0 1-.61-.21 1 1 0 0 1-.19-1.39c.14-.18 3.49-4.5 12-2.37a1 1 0 0 1 .73 1.21 1 1 0 0 1-1.22.73c-7.17-1.79-9.85 1.5-10 1.64a1 1 0 0 1-.71.39z"/><path class="cls-1" d="M173.47 144.26a.92.92 0 0 1-.46-.11 1 1 0 0 1-.43-1.31c.21-.42 2.27-4 11.42-2.21a1 1 0 0 1-.38 2c-7.62-1.47-9.25 1.13-9.26 1.16a1 1 0 0 1-.89.47zM223.09 132.46c-3.43 0-9.71-1.62-11.88-2.21-5.54-1.85-9.26-.09-9.29-.07a1 1 0 0 1-.89-1.79c.18-.09 4.44-2.16 10.76-.06 5.08 1.39 11.24 2.55 12.24 2.06a1 1 0 1 1 .89 1.79 4.41 4.41 0 0 1-1.83.28z"/><path class="cls-1" d="M209.43 139.44a13.35 13.35 0 0 1-2.11-.17h-.16a7.77 7.77 0 0 0-3.64-.26 2.17 2.17 0 0 0-.58.2 1 1 0 0 1-.91 0 4.67 4.67 0 0 1-1.35-7.5 1 1 0 0 1 .48-.34 11.61 11.61 0 0 1 2.59-.47 20.9 20.9 0 0 1 8.36 1 25 25 0 0 1 3.72 1.5c.79.21 6.82 1.74 10.2 0a1 1 0 1 1 .89 1.79c-2.27 1.13-5.33 1.11-7.75.83l-.07.05a17.27 17.27 0 0 1-7.46 3.2 13.82 13.82 0 0 1-2.21.17zm-1.72-2.13a11.89 11.89 0 0 0 3.62 0 15.3 15.3 0 0 0 4.95-1.78c-.62-.14-1-.25-1.08-.27a.85.85 0 0 1-.17-.06 23.87 23.87 0 0 0-3.52-1.43 19 19 0 0 0-7.58-.89 12.4 12.4 0 0 0-1.85.29 3.1 3.1 0 0 0-.66 2.43 2.83 2.83 0 0 0 1.15 1.58c.16 0 .32-.1.5-.14a9.62 9.62 0 0 1 4.64.27zM208.12 143.69a15 15 0 0 1-3.92-.45 1 1 0 0 1-.69-1.23 1 1 0 0 1 1.24-.69c.06 0 6.7 1.8 14.2-2.89a1 1 0 0 1 1.06 1.7 22.37 22.37 0 0 1-11.89 3.56z"/><path class="cls-1" d="M212.48 135.28a5 5 0 0 1-1 3 12.52 12.52 0 0 1-4 0 8.8 8.8 0 0 0-4.2-.28 5 5 0 0 1-.8-2.72 4.94 4.94 0 0 1 1.36-3.42 20.06 20.06 0 0 1 8 .93 4.88 4.88 0 0 1 .64 2.49zM181.48 143.28a3 3 0 0 1-.4 1.5 35.79 35.79 0 0 1-4.5.82 3 3 0 1 1 4.9-2.32z"/><path class="cls-1" d="M175 146.28l-.09-1s.66-.06 1.58-.17a36 36 0 0 0 4.44-.81 8.06 8.06 0 0 0 1.31-.47l.43.9a8.57 8.57 0 0 1-1.48.53 35.54 35.54 0 0 1-4.57.84c-.93.12-1.62.18-1.62.18z"/></g></g></svg>